<svg xmlns="http://www.w3.org/2000/svg" xmlns:xlink="http://www.w3.org/1999/xlink" width="25" zoomAndPan="magnify" viewBox="0 0 30 30.000001" height="25" preserveAspectRatio="xMidYMid meet" version="1.0"><defs><clipPath id="d1527fea4b"><path d="M 5.746094 5.261719 L 24.617188 5.261719 L 24.617188 24.132812 L 5.746094 24.132812 Z M 5.746094 5.261719 " clip-rule="nonzero"/></clipPath></defs><g clip-path="url(#d1527fea4b)"><path fill="#ffffff" d="M 24.617188 14.699219 C 24.617188 15.316406 24.554688 15.929688 24.4375 16.539062 C 24.316406 17.144531 24.136719 17.734375 23.898438 18.308594 C 23.660156 18.878906 23.371094 19.425781 23.027344 19.941406 C 22.683594 20.453125 22.292969 20.929688 21.851562 21.371094 C 21.414062 21.808594 20.9375 22.199219 20.421875 22.542969 C 19.910156 22.886719 19.363281 23.179688 18.792969 23.414062 C 18.21875 23.652344 17.628906 23.832031 17.023438 23.953125 C 16.414062 24.074219 15.800781 24.132812 15.179688 24.132812 C 14.5625 24.132812 13.949219 24.074219 13.339844 23.953125 C 12.734375 23.832031 12.144531 23.652344 11.570312 23.414062 C 11 23.179688 10.453125 22.886719 9.9375 22.542969 C 9.425781 22.199219 8.949219 21.808594 8.507812 21.371094 C 8.070312 20.929688 7.679688 20.453125 7.335938 19.941406 C 6.992188 19.425781 6.703125 18.878906 6.464844 18.308594 C 6.226562 17.734375 6.046875 17.144531 5.925781 16.539062 C 5.804688 15.929688 5.746094 15.316406 5.746094 14.699219 C 5.746094 14.078125 5.804688 13.464844 5.925781 12.855469 C 6.046875 12.25 6.226562 11.660156 6.464844 11.085938 C 6.703125 10.515625 6.992188 9.96875 7.335938 9.457031 C 7.679688 8.941406 8.070312 8.464844 8.507812 8.027344 C 8.949219 7.585938 9.425781 7.195312 9.9375 6.851562 C 10.453125 6.507812 11 6.21875 11.570312 5.980469 C 12.144531 5.742188 12.734375 5.5625 13.339844 5.445312 C 13.949219 5.324219 14.5625 5.261719 15.179688 5.261719 C 15.800781 5.261719 16.414062 5.324219 17.023438 5.445312 C 17.628906 5.5625 18.21875 5.742188 18.792969 5.980469 C 19.363281 6.21875 19.910156 6.507812 20.421875 6.851562 C 20.9375 7.195312 21.414062 7.585938 21.851562 8.027344 C 22.292969 8.464844 22.683594 8.941406 23.027344 9.457031 C 23.371094 9.96875 23.660156 10.515625 23.898438 11.085938 C 24.136719 11.660156 24.316406 12.25 24.4375 12.855469 C 24.554688 13.464844 24.617188 14.078125 24.617188 14.699219 Z M 24.617188 14.699219 " fill-opacity="1" fill-rule="nonzero"/></g><path fill="#222222" d="M 15 25.402344 C 21.011719 25.402344 25.886719 20.527344 25.886719 14.515625 C 25.886719 8.503906 21.011719 3.628906 15 3.628906 C 8.988281 3.628906 4.113281 8.503906 4.113281 14.515625 C 4.113281 20.527344 8.988281 25.402344 15 25.402344 Z M 16.5625 17.789062 C 17.035156 18.261719 17.800781 18.261719 18.273438 17.789062 C 18.746094 17.320312 18.746094 16.550781 18.273438 16.082031 L 16.710938 14.515625 L 18.273438 12.953125 C 18.746094 12.480469 18.746094 11.714844 18.273438 11.242188 C 17.800781 10.769531 17.035156 10.769531 16.5625 11.242188 L 15 12.804688 L 13.4375 11.242188 C 12.964844 10.769531 12.199219 10.769531 11.726562 11.242188 C 11.253906 11.714844 11.253906 12.480469 11.726562 12.953125 L 13.289062 14.515625 L 11.726562 16.082031 C 11.253906 16.550781 11.253906 17.320312 11.726562 17.789062 C 12.199219 18.261719 12.964844 18.261719 13.4375 17.789062 L 15 16.226562 Z M 18.242188 6.691406 C 16.429688 5.941406 14.417969 5.84375 12.542969 6.414062 C 10.667969 6.980469 9.046875 8.183594 7.960938 9.8125 C 6.871094 11.441406 6.382812 13.394531 6.574219 15.347656 C 6.765625 17.296875 7.628906 19.117188 9.011719 20.503906 C 9.484375 20.976562 10.25 20.976562 10.722656 20.503906 C 11.195312 20.03125 11.195312 19.265625 10.722656 18.792969 C 9.734375 17.804688 9.117188 16.5 8.980469 15.109375 C 8.84375 13.714844 9.195312 12.320312 9.972656 11.15625 C 10.75 9.992188 11.90625 9.132812 13.246094 8.726562 C 14.582031 8.320312 16.023438 8.394531 17.316406 8.929688 C 18.605469 9.464844 19.675781 10.429688 20.335938 11.664062 C 20.992188 12.898438 21.207031 14.324219 20.933594 15.695312 C 20.660156 17.070312 19.917969 18.304688 18.835938 19.191406 C 17.753906 20.078125 16.398438 20.566406 15 20.566406 C 14.332031 20.566406 13.789062 21.105469 13.789062 21.773438 C 13.789062 22.441406 14.332031 22.984375 15 22.984375 C 16.960938 22.984375 18.859375 22.304688 20.371094 21.0625 C 21.886719 19.820312 22.921875 18.089844 23.304688 16.167969 C 23.6875 14.246094 23.390625 12.253906 22.46875 10.523438 C 21.542969 8.796875 20.050781 7.441406 18.242188 6.691406 Z M 18.242188 6.691406 " fill-opacity="1" fill-rule="evenodd"/></svg>